<?xml version="1.0" encoding="UTF-8" standalone="no"?>
<!-- Created with Inkscape (http://www.inkscape.org/) -->

<svg
   width="32"
   height="32"
   viewBox="0 0 32 32"
   version="1.1"
   id="svg1"
   inkscape:version="1.3 (0e150ed6c4, 2023-07-21)"
   sodipodi:docname="empty_tag.svg"
   xmlns:inkscape="http://www.inkscape.org/namespaces/inkscape"
   xmlns:sodipodi="http://sodipodi.sourceforge.net/DTD/sodipodi-0.dtd"
   xmlns="http://www.w3.org/2000/svg"
   xmlns:svg="http://www.w3.org/2000/svg">
  <sodipodi:namedview
     id="namedview1"
     pagecolor="#505050"
     bordercolor="#ffffff"
     borderopacity="1"
     inkscape:showpageshadow="0"
     inkscape:pageopacity="0"
     inkscape:pagecheckerboard="1"
     inkscape:deskcolor="#d1d1d1"
     inkscape:document-units="px"
     inkscape:zoom="14.565194"
     inkscape:cx="17.919432"
     inkscape:cy="17.267192"
     inkscape:window-width="1918"
     inkscape:window-height="1043"
     inkscape:window-x="0"
     inkscape:window-y="35"
     inkscape:window-maximized="1"
     inkscape:current-layer="layer1" />
  <defs
     id="defs1" />
  <g
     inkscape:label="Calque 1"
     inkscape:groupmode="layer"
     id="layer1">
    <path
       d="M 16,0 A 16,15.949587 0 0 0 13.722656,0.16210937 16,15.949587 0 0 0 11.492188,0.64648437 16,15.949587 0 0 0 9.3535156,1.4414062 16,15.949587 0 0 0 7.3496094,2.53125 16,15.949587 0 0 0 5.5214844,3.8964844 16,15.949587 0 0 0 3.9082031,5.5039062 16,15.949587 0 0 0 2.5390625,7.3261719 16,15.949587 0 0 0 1.4453125,9.3242188 16,15.949587 0 0 0 0.6484375,11.457031 16,15.949587 0 0 0 0.16210937,13.679688 16,15.949587 0 0 0 0,15.949219 a 16,15.949587 0 0 0 0.16210937,2.269531 16,15.949587 0 0 0 0.48632813,2.224609 16,15.949587 0 0 0 0.796875,2.132813 16,15.949587 0 0 0 1.09375,1.996094 16,15.949587 0 0 0 1.3691406,1.822265 16,15.949587 0 0 0 1.6132813,1.609375 16,15.949587 0 0 0 1.828125,1.363281 16,15.949587 0 0 0 2.0039062,1.089844 16,15.949587 0 0 0 2.1386724,0.796875 16,15.949587 0 0 0 2.230468,0.482422 A 16,15.949587 0 0 0 16,31.898437 a 16,15.949587 0 0 0 2.277344,-0.162109 16,15.949587 0 0 0 2.230468,-0.482422 16,15.949587 0 0 0 2.138672,-0.796875 16,15.949587 0 0 0 2.003907,-1.089844 16,15.949587 0 0 0 1.828125,-1.363281 16,15.949587 0 0 0 1.613281,-1.609375 16,15.949587 0 0 0 1.36914,-1.822265 16,15.949587 0 0 0 1.09375,-1.996094 16,15.949587 0 0 0 0.796875,-2.132813 A 16,15.949587 0 0 0 31.837891,18.21875 16,15.949587 0 0 0 32,15.949219 16,15.949587 0 0 0 31.980469,15.166016 16,15.949587 0 0 0 31.923828,14.386719 16,15.949587 0 0 0 31.826172,13.609375 16,15.949587 0 0 0 31.693359,12.837891 16,15.949587 0 0 0 31.519531,12.074219 16,15.949587 0 0 0 31.310547,11.320313 16,15.949587 0 0 0 31.064453,10.576172 16,15.949587 0 0 0 30.78125,9.8457031 16,15.949587 0 0 0 30.462891,9.1308594 16,15.949587 0 0 0 30.111328,8.4316406 16,15.949587 0 0 0 29.724609,7.75 16,15.949587 0 0 0 29.302734,7.0878906 16,15.949587 0 0 0 28.851562,6.4492187 16,15.949587 0 0 0 28.369141,5.8320312 16,15.949587 0 0 0 27.855469,5.2382812 16,15.949587 0 0 0 27.314453,4.671875 16,15.949587 0 0 0 26.744141,4.1308594 16,15.949587 0 0 0 26.150391,3.6210938 16,15.949587 0 0 0 25.53125,3.1386719 16,15.949587 0 0 0 24.888672,2.6875 16,15.949587 0 0 0 24.226562,2.2695313 16,15.949587 0 0 0 23.542969,1.8828125 16,15.949587 0 0 0 22.841797,1.53125 16,15.949587 0 0 0 22.123047,1.2148437 16,15.949587 0 0 0 21.390625,0.93164063 16,15.949587 0 0 0 20.644531,0.6875 16,15.949587 0 0 0 19.886719,0.47851563 16,15.949587 0 0 0 19.121094,0.30664063 16,15.949587 0 0 0 18.347656,0.171875 16,15.949587 0 0 0 17.568359,0.07617187 16,15.949587 0 0 0 16.785156,0.01953125 16,15.949587 0 0 0 16,0 Z m 0,4 a 12,12 0 0 1 0.671875,0.019531 12,12 0 0 1 0.671875,0.056641 12,12 0 0 1 0.666016,0.09375 12,12 0 0 1 0.660156,0.1308593 12,12 0 0 1 0.652344,0.1679688 12,12 0 0 1 0.640625,0.2050781 12,12 0 0 1 0.628906,0.2402344 12,12 0 0 1 0.615234,0.2734375 12,12 0 0 1 0.597656,0.3105469 12,12 0 0 1 0.580079,0.3417968 12,12 0 0 1 0.558593,0.3730469 12,12 0 0 1 0.539063,0.4042969 12,12 0 0 1 0.513672,0.4355469 12,12 0 0 1 0.488281,0.4628906 12,12 0 0 1 0.462891,0.4882813 12,12 0 0 1 0.435546,0.5136718 12,12 0 0 1 0.404297,0.5390625 12,12 0 0 1 0.373047,0.5585938 12,12 0 0 1 0.341797,0.5800786 12,12 0 0 1 0.310547,0.597656 12,12 0 0 1 0.273437,0.615234 12,12 0 0 1 0.240235,0.628906 12,12 0 0 1 0.205078,0.640625 12,12 0 0 1 0.167969,0.652344 12,12 0 0 1 0.130859,0.660156 12,12 0 0 1 0.09375,0.666016 12,12 0 0 1 0.05664,0.671875 A 12,12 0 0 1 28,16 a 12,12 0 0 1 -0.148438,1.876953 12,12 0 0 1 -0.439453,1.832031 12,12 0 0 1 -0.720703,1.738282 12,12 0 0 1 -0.982422,1.605468 12,12 0 0 1 -1.224609,1.431641 12,12 0 0 1 -1.431641,1.224609 12,12 0 0 1 -1.605468,0.982422 12,12 0 0 1 -1.738282,0.720703 12,12 0 0 1 -1.832031,0.439453 A 12,12 0 0 1 16,28 12,12 0 0 1 14.123047,27.851562 12,12 0 0 1 12.291016,27.412109 12,12 0 0 1 10.552734,26.691406 12,12 0 0 1 8.9472656,25.708984 12,12 0 0 1 7.515625,24.484375 12,12 0 0 1 6.2910156,23.052734 12,12 0 0 1 5.3085937,21.447266 12,12 0 0 1 4.5878906,19.708984 12,12 0 0 1 4.1484375,17.876953 12,12 0 0 1 4,16 12,12 0 0 1 4.1484375,14.123047 12,12 0 0 1 4.5878906,12.291016 12,12 0 0 1 5.3085937,10.552734 12,12 0 0 1 6.2910156,8.9472656 12,12 0 0 1 7.515625,7.515625 12,12 0 0 1 8.9472656,6.2910156 12,12 0 0 1 10.552734,5.3085937 12,12 0 0 1 12.291016,4.5878906 12,12 0 0 1 14.123047,4.1484375 12,12 0 0 1 16,4 Z"
       style="fill:#000500;stroke:#e20000;stroke-width:0;stroke-opacity:0"
       id="path3" />
  </g>
</svg>
