<?xml version="1.0" encoding="UTF-8" standalone="no"?>
<!-- Created with Inkscape (http://www.inkscape.org/) -->

<svg
   width="32"
   height="32"
   viewBox="0 0 32 32"
   version="1.1"
   id="svg1"
   inkscape:version="1.3 (0e150ed6c4, 2023-07-21)"
   sodipodi:docname="empty_tag.svg"
   xmlns:inkscape="http://www.inkscape.org/namespaces/inkscape"
   xmlns:sodipodi="http://sodipodi.sourceforge.net/DTD/sodipodi-0.dtd"
   xmlns="http://www.w3.org/2000/svg"
   xmlns:svg="http://www.w3.org/2000/svg">
  <sodipodi:namedview
     id="namedview1"
     pagecolor="#505050"
     bordercolor="#ffffff"
     borderopacity="1"
     inkscape:showpageshadow="0"
     inkscape:pageopacity="0"
     inkscape:pagecheckerboard="1"
     inkscape:deskcolor="#d1d1d1"
     inkscape:document-units="px"
     inkscape:zoom="27.3125"
     inkscape:cx="22.187643"
     inkscape:cy="16.457666"
     inkscape:window-width="1918"
     inkscape:window-height="1043"
     inkscape:window-x="0"
     inkscape:window-y="35"
     inkscape:window-maximized="1"
     inkscape:current-layer="layer1" />
  <defs
     id="defs1" />
  <g
     inkscape:label="Calque 1"
     inkscape:groupmode="layer"
     id="layer1">
    <path
       d="M 16,0 A 16,16 0 0 0 13.722656,0.16210937 16,16 0 0 0 11.492188,0.6484375 16,16 0 0 0 9.3535156,1.4453125 16,16 0 0 0 7.3496094,2.5390625 16,16 0 0 0 5.5214844,3.9082031 16,16 0 0 0 3.9082031,5.5214844 16,16 0 0 0 2.5390625,7.3496094 16,16 0 0 0 1.4453125,9.3535156 16,16 0 0 0 0.6484375,11.492188 16,16 0 0 0 0.16210937,13.722656 16,16 0 0 0 0,16 a 16,16 0 0 0 0.16210937,2.277344 16,16 0 0 0 0.48632813,2.230468 16,16 0 0 0 0.796875,2.138672 16,16 0 0 0 1.09375,2.003907 16,16 0 0 0 1.3691406,1.828125 16,16 0 0 0 1.6132813,1.613281 16,16 0 0 0 1.828125,1.36914 16,16 0 0 0 2.0039062,1.09375 16,16 0 0 0 2.1386724,0.796875 16,16 0 0 0 2.230468,0.486329 A 16,16 0 0 0 16,32 a 16,16 0 0 0 2.277344,-0.162109 16,16 0 0 0 2.230468,-0.486329 16,16 0 0 0 2.138672,-0.796875 16,16 0 0 0 2.003907,-1.09375 16,16 0 0 0 1.828125,-1.36914 16,16 0 0 0 1.613281,-1.613281 16,16 0 0 0 1.36914,-1.828125 16,16 0 0 0 1.09375,-2.003907 16,16 0 0 0 0.796875,-2.138672 16,16 0 0 0 0.486329,-2.230468 A 16,16 0 0 0 32,16 16,16 0 0 0 31.980469,15.214844 16,16 0 0 0 31.923828,14.431641 16,16 0 0 0 31.826172,13.652344 16,16 0 0 0 31.693359,12.878906 16,16 0 0 0 31.519531,12.113281 16,16 0 0 0 31.310547,11.355469 16,16 0 0 0 31.064453,10.609375 16,16 0 0 0 30.78125,9.8769531 16,16 0 0 0 30.462891,9.1582031 16,16 0 0 0 30.111328,8.4570313 16,16 0 0 0 29.724609,7.7734375 16,16 0 0 0 29.302734,7.1113281 16,16 0 0 0 28.851562,6.46875 16,16 0 0 0 28.369141,5.8496094 16,16 0 0 0 27.855469,5.2558594 16,16 0 0 0 27.314453,4.6855469 16,16 0 0 0 26.744141,4.1445312 16,16 0 0 0 26.150391,3.6308594 16,16 0 0 0 25.53125,3.1484375 16,16 0 0 0 24.888672,2.6972656 16,16 0 0 0 24.226562,2.2753906 16,16 0 0 0 23.542969,1.8886719 16,16 0 0 0 22.841797,1.5371094 16,16 0 0 0 22.123047,1.21875 16,16 0 0 0 21.390625,0.93554688 16,16 0 0 0 20.644531,0.68945312 16,16 0 0 0 19.886719,0.48046875 16,16 0 0 0 19.121094,0.30664063 16,16 0 0 0 18.347656,0.17382812 16,16 0 0 0 17.568359,0.07617187 16,16 0 0 0 16.785156,0.01953125 16,16 0 0 0 16,0 Z m 0,3 a 13,13 0 0 1 0.703125,0.019531 13,13 0 0 1 0.703125,0.056641 13,13 0 0 1 0.697266,0.095703 13,13 0 0 1 0.691406,0.1328125 13,13 0 0 1 0.683594,0.1699219 13,13 0 0 1 0.671875,0.2050781 13,13 0 0 1 0.662109,0.2441406 13,13 0 0 1 0.646484,0.2773438 13,13 0 0 1 0.63086,0.3125 13,13 0 0 1 0.613281,0.3476562 13,13 0 0 1 0.591797,0.3789063 13,13 0 0 1 0.572265,0.4101562 13,13 0 0 1 0.548829,0.4414063 13,13 0 0 1 0.523437,0.4707031 13,13 0 0 1 0.498047,0.4980469 13,13 0 0 1 0.470703,0.5234375 13,13 0 0 1 0.441406,0.5488281 13,13 0 0 1 0.410157,0.5722656 13,13 0 0 1 0.378906,0.5917969 13,13 0 0 1 0.347656,0.6132813 13,13 0 0 1 0.3125,0.6308597 13,13 0 0 1 0.277344,0.646484 13,13 0 0 1 0.24414,0.662109 13,13 0 0 1 0.205079,0.671875 13,13 0 0 1 0.169921,0.683594 13,13 0 0 1 0.132813,0.691406 13,13 0 0 1 0.0957,0.697266 13,13 0 0 1 0.05664,0.703125 A 13,13 0 0 1 29,16 a 13,13 0 0 1 -0.160156,2.033203 13,13 0 0 1 -0.476563,1.984375 13,13 0 0 1 -0.779297,1.884766 13,13 0 0 1 -1.066406,1.738281 13,13 0 0 1 -1.324219,1.552734 13,13 0 0 1 -1.552734,1.324219 13,13 0 0 1 -1.738281,1.066406 13,13 0 0 1 -1.884766,0.779297 13,13 0 0 1 -1.984375,0.476563 A 13,13 0 0 1 16,29 13,13 0 0 1 13.966797,28.839844 13,13 0 0 1 11.982422,28.363281 13,13 0 0 1 10.097656,27.583984 13,13 0 0 1 8.359375,26.517578 13,13 0 0 1 6.8066406,25.193359 13,13 0 0 1 5.4824219,23.640625 13,13 0 0 1 4.4160156,21.902344 13,13 0 0 1 3.6367188,20.017578 13,13 0 0 1 3.1601563,18.033203 13,13 0 0 1 3,16 13,13 0 0 1 3.1601563,13.966797 13,13 0 0 1 3.6367188,11.982422 13,13 0 0 1 4.4160156,10.097656 13,13 0 0 1 5.4824219,8.359375 13,13 0 0 1 6.8066406,6.8066406 13,13 0 0 1 8.359375,5.4824219 13,13 0 0 1 10.097656,4.4160156 13,13 0 0 1 11.982422,3.6367188 13,13 0 0 1 13.966797,3.1601563 13,13 0 0 1 16,3 Z"
       style="fill:#000500;stroke:#e20000;stroke-width:0;stroke-opacity:0"
       id="path3" />
  </g>
</svg>
